<mxfile host="app.diagrams.net" modified="2023-04-24T19:00:53.488Z" agent="Mozilla/5.0 (Windows NT 10.0; Win64; x64) AppleWebKit/537.36 (KHTML, like Gecko) Chrome/112.0.0.0 Safari/537.36 OPR/98.0.0.0 (Edition Yx 05)" etag="bmKtIyO_IkSWnq4upmro" version="21.2.1" type="device">
  <diagram name="Страница 1" id="Jo_hSg6AI6LK5x6mnP7V">
    <mxGraphModel dx="1042" dy="603" grid="1" gridSize="10" guides="1" tooltips="1" connect="1" arrows="1" fold="1" page="1" pageScale="1" pageWidth="827" pageHeight="1169" math="0" shadow="0">
      <root>
        <mxCell id="0" />
        <mxCell id="1" parent="0" />
        <mxCell id="Ojlx5eYloQ1lB_-5Qk6a-1" value="&lt;font style=&quot;font-size: 18px;&quot;&gt;&lt;b&gt;users&lt;/b&gt;&lt;br&gt;id&lt;br&gt;email&lt;br&gt;password&lt;br&gt;role&lt;/font&gt;" style="rounded=0;whiteSpace=wrap;html=1;" parent="1" vertex="1">
          <mxGeometry x="20" y="110" width="140" height="130" as="geometry" />
        </mxCell>
        <mxCell id="Ojlx5eYloQ1lB_-5Qk6a-2" value="&lt;font style=&quot;font-size: 18px;&quot;&gt;&lt;b style=&quot;&quot;&gt;train&lt;/b&gt;&lt;br&gt;id&lt;br&gt;type&lt;br&gt;number&lt;br&gt;&lt;/font&gt;" style="rounded=0;whiteSpace=wrap;html=1;" parent="1" vertex="1">
          <mxGeometry x="630" y="347.5" width="120" height="130" as="geometry" />
        </mxCell>
        <mxCell id="Ojlx5eYloQ1lB_-5Qk6a-19" value="" style="edgeStyle=orthogonalEdgeStyle;rounded=0;orthogonalLoop=1;jettySize=auto;html=1;" parent="1" source="Ojlx5eYloQ1lB_-5Qk6a-3" target="Ojlx5eYloQ1lB_-5Qk6a-2" edge="1">
          <mxGeometry relative="1" as="geometry" />
        </mxCell>
        <mxCell id="Ojlx5eYloQ1lB_-5Qk6a-3" value="&lt;font style=&quot;font-size: 18px;&quot;&gt;&lt;b&gt;route&lt;/b&gt;&lt;br&gt;id&lt;br&gt;to_station&lt;br style=&quot;border-color: var(--border-color);&quot;&gt;from_station&lt;br&gt;to_city&lt;br&gt;from_city&lt;br&gt;to_time&lt;br&gt;from_time&lt;br&gt;train_id&lt;br&gt;&lt;br&gt;&lt;/font&gt;" style="rounded=0;whiteSpace=wrap;html=1;" parent="1" vertex="1">
          <mxGeometry x="414" y="297.5" width="136" height="230" as="geometry" />
        </mxCell>
        <mxCell id="Ojlx5eYloQ1lB_-5Qk6a-12" value="&lt;font style=&quot;font-size: 18px;&quot;&gt;&lt;b&gt;stores_route&lt;br&gt;&lt;/b&gt;id&lt;br&gt;store_id&lt;br&gt;route_id&lt;br&gt;&lt;/font&gt;" style="rounded=0;whiteSpace=wrap;html=1;" parent="1" vertex="1">
          <mxGeometry x="220" y="362.5" width="130" height="100" as="geometry" />
        </mxCell>
        <mxCell id="lHOvwGslL7wyrDU-Cxel-1" value="&lt;font style=&quot;font-size: 18px;&quot;&gt;&lt;b&gt;price&lt;/b&gt;&lt;br&gt;id&lt;br&gt;type_trip&lt;br&gt;price&lt;br&gt;&lt;br&gt;&lt;/font&gt;" style="rounded=0;whiteSpace=wrap;html=1;" vertex="1" parent="1">
          <mxGeometry x="630" y="32.5" width="120" height="120" as="geometry" />
        </mxCell>
        <mxCell id="lHOvwGslL7wyrDU-Cxel-7" value="&lt;font style=&quot;font-size: 18px;&quot;&gt;&lt;b&gt;route_price&lt;br&gt;&lt;/b&gt;id&lt;br&gt;price_id&lt;br&gt;route_id&lt;br&gt;&lt;/font&gt;" style="rounded=0;whiteSpace=wrap;html=1;" vertex="1" parent="1">
          <mxGeometry x="423" y="45" width="117" height="95" as="geometry" />
        </mxCell>
        <mxCell id="lHOvwGslL7wyrDU-Cxel-13" value="" style="endArrow=classic;startArrow=classic;html=1;rounded=0;exitX=1;exitY=0.5;exitDx=0;exitDy=0;entryX=0;entryY=0.5;entryDx=0;entryDy=0;" edge="1" parent="1" source="Ojlx5eYloQ1lB_-5Qk6a-12" target="Ojlx5eYloQ1lB_-5Qk6a-3">
          <mxGeometry width="50" height="50" relative="1" as="geometry">
            <mxPoint x="390" y="270" as="sourcePoint" />
            <mxPoint x="440" y="220" as="targetPoint" />
          </mxGeometry>
        </mxCell>
        <mxCell id="lHOvwGslL7wyrDU-Cxel-15" value="" style="endArrow=classic;startArrow=classic;html=1;rounded=0;exitX=0.5;exitY=1;exitDx=0;exitDy=0;entryX=0.5;entryY=0;entryDx=0;entryDy=0;" edge="1" parent="1" source="lHOvwGslL7wyrDU-Cxel-7" target="Ojlx5eYloQ1lB_-5Qk6a-3">
          <mxGeometry width="50" height="50" relative="1" as="geometry">
            <mxPoint x="390" y="270" as="sourcePoint" />
            <mxPoint x="440" y="220" as="targetPoint" />
          </mxGeometry>
        </mxCell>
        <mxCell id="lHOvwGslL7wyrDU-Cxel-16" value="" style="endArrow=classic;startArrow=classic;html=1;rounded=0;exitX=1;exitY=0.5;exitDx=0;exitDy=0;entryX=0;entryY=0.5;entryDx=0;entryDy=0;" edge="1" parent="1" source="lHOvwGslL7wyrDU-Cxel-7" target="lHOvwGslL7wyrDU-Cxel-1">
          <mxGeometry width="50" height="50" relative="1" as="geometry">
            <mxPoint x="390" y="270" as="sourcePoint" />
            <mxPoint x="440" y="220" as="targetPoint" />
          </mxGeometry>
        </mxCell>
        <mxCell id="lHOvwGslL7wyrDU-Cxel-22" value="" style="edgeStyle=orthogonalEdgeStyle;rounded=0;orthogonalLoop=1;jettySize=auto;html=1;" edge="1" parent="1" source="lHOvwGslL7wyrDU-Cxel-18" target="Ojlx5eYloQ1lB_-5Qk6a-12">
          <mxGeometry relative="1" as="geometry" />
        </mxCell>
        <mxCell id="lHOvwGslL7wyrDU-Cxel-23" style="edgeStyle=orthogonalEdgeStyle;rounded=0;orthogonalLoop=1;jettySize=auto;html=1;exitX=0.5;exitY=0;exitDx=0;exitDy=0;entryX=0.5;entryY=1;entryDx=0;entryDy=0;" edge="1" parent="1" source="lHOvwGslL7wyrDU-Cxel-18" target="Ojlx5eYloQ1lB_-5Qk6a-1">
          <mxGeometry relative="1" as="geometry" />
        </mxCell>
        <mxCell id="lHOvwGslL7wyrDU-Cxel-18" value="&lt;font style=&quot;font-size: 18px;&quot;&gt;&lt;b&gt;store&lt;/b&gt;&lt;br&gt;id&lt;br&gt;user_id&lt;/font&gt;" style="rounded=0;whiteSpace=wrap;html=1;" vertex="1" parent="1">
          <mxGeometry x="25" y="375" width="130" height="75" as="geometry" />
        </mxCell>
      </root>
    </mxGraphModel>
  </diagram>
</mxfile>
